<svg xmlns="http://www.w3.org/2000/svg" version="1.1" xmlns:xlink="http://www.w3.org/1999/xlink" xmlns:svgjs="http://svgjs.dev/svgjs" width="1440" height="250" preserveAspectRatio="none" viewBox="0 0 1440 250"><g mask="url(&quot;#SvgjsMask1046&quot;)" fill="none"><path d="M33 250L283 0L580 0L330 250z" fill="url(&quot;#SvgjsLinearGradient1047&quot;)"></path><path d="M263.6 250L513.6 0L662.1 0L412.1 250z" fill="url(&quot;#SvgjsLinearGradient1047&quot;)"></path><path d="M520.2 250L770.2 0L872.2 0L622.2 250z" fill="url(&quot;#SvgjsLinearGradient1047&quot;)"></path><path d="M757.8000000000001 250L1007.8000000000001 0L1342.3000000000002 0L1092.3000000000002 250z" fill="url(&quot;#SvgjsLinearGradient1047&quot;)"></path><path d="M1426 250L1176 0L1027.5 0L1277.5 250z" fill="url(&quot;#SvgjsLinearGradient1048&quot;)"></path><path d="M1163.4 250L913.4000000000001 0L671.9000000000001 0L921.9000000000001 250z" fill="url(&quot;#SvgjsLinearGradient1048&quot;)"></path><path d="M933.8 250L683.8 0L589.3 0L839.3 250z" fill="url(&quot;#SvgjsLinearGradient1048&quot;)"></path><path d="M721.1999999999999 250L471.19999999999993 0L300.19999999999993 0L550.1999999999999 250z" fill="url(&quot;#SvgjsLinearGradient1048&quot;)"></path><path d="M1313.314716547753 250L1440 123.31471654775305L1440 250z" fill="url(&quot;#SvgjsLinearGradient1047&quot;)"></path><path d="M0 250L126.68528345224695 250L 0 123.31471654775305z" fill="url(&quot;#SvgjsLinearGradient1048&quot;)"></path></g><defs><mask id="SvgjsMask1046"><rect width="1440" height="250" fill="#ffffff"></rect></mask><linearGradient x1="0%" y1="100%" x2="100%" y2="0%" id="SvgjsLinearGradient1047"><stop stop-color="rgba(96, 182, 245, 1)" offset="0"></stop><stop stop-opacity="0" stop-color="rgba(96, 182, 245, 1)" offset="0.66"></stop></linearGradient><linearGradient x1="100%" y1="100%" x2="0%" y2="0%" id="SvgjsLinearGradient1048"><stop stop-color="rgba(96, 182, 245, 1)" offset="0"></stop><stop stop-opacity="0" stop-color="rgba(96, 182, 245, 1)" offset="0.66"></stop></linearGradient></defs></svg>