<svg xmlns="http://www.w3.org/2000/svg" version="1.1" xmlns:xlink="http://www.w3.org/1999/xlink" xmlns:svgjs="http://svgjs.dev/svgjs" width="1440" height="560" preserveAspectRatio="none" viewBox="0 0 1440 560"><g mask="url(&quot;#SvgjsMask1012&quot;)" fill="none"><path d="M830 448L829 858" stroke-width="10" stroke="url(&quot;#SvgjsLinearGradient1013&quot;)" stroke-linecap="round" class="Down"></path><path d="M1267 379L1266 163" stroke-width="6" stroke="url(&quot;#SvgjsLinearGradient1014&quot;)" stroke-linecap="round" class="Up"></path><path d="M733 32L732 -386" stroke-width="10" stroke="url(&quot;#SvgjsLinearGradient1013&quot;)" stroke-linecap="round" class="Down"></path><path d="M201 284L200 -90" stroke-width="10" stroke="url(&quot;#SvgjsLinearGradient1013&quot;)" stroke-linecap="round" class="Down"></path><path d="M869 373L868 24" stroke-width="6" stroke="url(&quot;#SvgjsLinearGradient1014&quot;)" stroke-linecap="round" class="Up"></path><path d="M629 25L628 196" stroke-width="6" stroke="url(&quot;#SvgjsLinearGradient1014&quot;)" stroke-linecap="round" class="Up"></path><path d="M1185 94L1184 460" stroke-width="10" stroke="url(&quot;#SvgjsLinearGradient1014&quot;)" stroke-linecap="round" class="Up"></path><path d="M980 300L979 650" stroke-width="8" stroke="url(&quot;#SvgjsLinearGradient1013&quot;)" stroke-linecap="round" class="Down"></path><path d="M412 26L411 -248" stroke-width="6" stroke="url(&quot;#SvgjsLinearGradient1014&quot;)" stroke-linecap="round" class="Up"></path><path d="M813 421L812 795" stroke-width="8" stroke="url(&quot;#SvgjsLinearGradient1013&quot;)" stroke-linecap="round" class="Down"></path><path d="M335 465L334 632" stroke-width="10" stroke="url(&quot;#SvgjsLinearGradient1014&quot;)" stroke-linecap="round" class="Up"></path><path d="M24 442L23 801" stroke-width="10" stroke="url(&quot;#SvgjsLinearGradient1013&quot;)" stroke-linecap="round" class="Down"></path><path d="M1103 175L1102 482" stroke-width="8" stroke="url(&quot;#SvgjsLinearGradient1013&quot;)" stroke-linecap="round" class="Down"></path><path d="M1258 122L1257 293" stroke-width="8" stroke="url(&quot;#SvgjsLinearGradient1013&quot;)" stroke-linecap="round" class="Down"></path><path d="M996 400L995 161" stroke-width="6" stroke="url(&quot;#SvgjsLinearGradient1014&quot;)" stroke-linecap="round" class="Up"></path><path d="M62 398L61 171" stroke-width="8" stroke="url(&quot;#SvgjsLinearGradient1014&quot;)" stroke-linecap="round" class="Up"></path><path d="M457 167L456 0" stroke-width="10" stroke="url(&quot;#SvgjsLinearGradient1014&quot;)" stroke-linecap="round" class="Up"></path><path d="M1197 239L1196 50" stroke-width="6" stroke="url(&quot;#SvgjsLinearGradient1013&quot;)" stroke-linecap="round" class="Down"></path><path d="M929 25L928 -229" stroke-width="6" stroke="url(&quot;#SvgjsLinearGradient1013&quot;)" stroke-linecap="round" class="Down"></path><path d="M114 399L113 590" stroke-width="10" stroke="url(&quot;#SvgjsLinearGradient1014&quot;)" stroke-linecap="round" class="Up"></path><path d="M736 386L735 806" stroke-width="10" stroke="url(&quot;#SvgjsLinearGradient1014&quot;)" stroke-linecap="round" class="Up"></path><path d="M664 552L663 254" stroke-width="6" stroke="url(&quot;#SvgjsLinearGradient1014&quot;)" stroke-linecap="round" class="Up"></path><path d="M670 421L669 47" stroke-width="10" stroke="url(&quot;#SvgjsLinearGradient1014&quot;)" stroke-linecap="round" class="Up"></path><path d="M780 80L779 -275" stroke-width="6" stroke="url(&quot;#SvgjsLinearGradient1013&quot;)" stroke-linecap="round" class="Down"></path><path d="M868 12L867 -231" stroke-width="6" stroke="url(&quot;#SvgjsLinearGradient1014&quot;)" stroke-linecap="round" class="Up"></path><path d="M803 138L802 -260" stroke-width="6" stroke="url(&quot;#SvgjsLinearGradient1014&quot;)" stroke-linecap="round" class="Up"></path><path d="M981 266L980 599" stroke-width="10" stroke="url(&quot;#SvgjsLinearGradient1013&quot;)" stroke-linecap="round" class="Down"></path><path d="M1291 180L1290 343" stroke-width="8" stroke="url(&quot;#SvgjsLinearGradient1014&quot;)" stroke-linecap="round" class="Up"></path><path d="M881 224L880 -99" stroke-width="6" stroke="url(&quot;#SvgjsLinearGradient1013&quot;)" stroke-linecap="round" class="Down"></path><path d="M412 263L411 682" stroke-width="10" stroke="url(&quot;#SvgjsLinearGradient1013&quot;)" stroke-linecap="round" class="Down"></path><path d="M686 97L685 297" stroke-width="6" stroke="url(&quot;#SvgjsLinearGradient1014&quot;)" stroke-linecap="round" class="Up"></path><path d="M589 130L588 -130" stroke-width="8" stroke="url(&quot;#SvgjsLinearGradient1013&quot;)" stroke-linecap="round" class="Down"></path><path d="M1407 394L1406 745" stroke-width="6" stroke="url(&quot;#SvgjsLinearGradient1013&quot;)" stroke-linecap="round" class="Down"></path><path d="M1373 522L1372 122" stroke-width="10" stroke="url(&quot;#SvgjsLinearGradient1014&quot;)" stroke-linecap="round" class="Up"></path><path d="M1311 345L1310 59" stroke-width="6" stroke="url(&quot;#SvgjsLinearGradient1013&quot;)" stroke-linecap="round" class="Down"></path><path d="M803 342L802 -31" stroke-width="10" stroke="url(&quot;#SvgjsLinearGradient1014&quot;)" stroke-linecap="round" class="Up"></path></g><defs><mask id="SvgjsMask1012"><rect width="1440" height="560" fill="#ffffff"></rect></mask><linearGradient x1="0%" y1="0%" x2="0%" y2="100%" id="SvgjsLinearGradient1013"><stop stop-color="rgba(72, 207, 203, 0)" offset="0"></stop><stop stop-color="rgba(72, 207, 203, 1)" offset="1"></stop></linearGradient><linearGradient x1="0%" y1="100%" x2="0%" y2="0%" id="SvgjsLinearGradient1014"><stop stop-color="rgba(72, 207, 203, 0)" offset="0"></stop><stop stop-color="rgba(72, 207, 203, 1)" offset="1"></stop></linearGradient></defs></svg>